/* XPM */
static const char * IconPaintOnSrf[] = {
/* width height ncolors chars_per_pixel */
"32 32 16 1",
/* colors */
"` c #541303",
"a c #A75565",
"b c #773839",
"c c #95544C",
"d c #6C2B1F",
"e c #9B3957",
"f c #BF6A7A",
"g c #EA9BA4",
"h c None",
"i c #80453F",
"j c #FAAAB3",
"k c #A0465E",
"l c #A66360",
"m c #F8BABD",
"n c #C67C82",
"o c #D88793",
/* pixels */
"hhhhhhhhhhhhhhhhhhhhhhhhhhhhhhhh",
"hhhhhhhhhhhmmgnnfnngmhhhhhhhhhhh",
"hhhhhhhhhggjjjjjmjjjjjmhhhhhhhhh",
"hhhhhhhod`dojmmmjgmmmjjgmhhhhhhh",
"hhhhhhc````immmmmmmmmmgddnhhhhhh",
"hhhhhi`````lmmmmmmmmmmmd``lhhhhh",
"hhhhln````djmmmmmmmmmmml```nhhhh",
"hhhgngi``bgmmmmmmmmmmmmg```ijhhh",
"hhmnogl`cjmmmmjldddnmmmmi``dohhh",
"hhofaggjjmmmml``````lmmjg```gohh",
"hhf``ajjjjmmc```d````mmmmi``nomh",
"hja```gjjmml```icid``nmmmo``domh",
"hfa```gjjjo```dnhji``lmmmjb``igh",
"hbf```ejjjb```dnhjlbdjmmjmg```fh",
"h``````gjj````ijhmmmmmmmjjjl``dh",
"h``````ggg````ommmmmjnnjjjjgb``m",
"m`````kgjn````gmjmgc```bdajgo``m",
"h``anfoggo````gjjj````````fgga`m",
"hekfoooogg````gjjn````````fgooeh",
"hfafnoogggd```njjgi```````ogonoh",
"hgeaffooogi```cgjgjjg```eoooofoh",
"hhekffnooon````fggggb```ogoofahh",
"hhneaffnnooe`````bb````aoooffnhh",
"hhhkeaffnoooe`````````doonffkmhh",
"hhhgeekfffnnokd``````dfonffkohhh",
"hhhhokekafffnnnnaebelnfnfaaahhhh",
"hhhhhnkeekaffffnfffffffaaekhhhhh",
"hhhhhhofkeekaafaffffaaaeefhhhhhh",
"hhhhhhhgnlkbbeekkekkeeeaohhhhhhh",
"hhhhhhhhmcbcibd``````knmhhhhhhhh",
"hhhhhhhhhhmnibbbdd`inhhhhhhhhhhh",
"hhhhhhhhhhhhhhhmmhhhhhhhhhhhhhhh"
};
