/* XPM */
static const char * IconMenuExample[] = {
/* width height ncolors chars_per_pixel */
"16 16 90 1",
/* colors */
"  c #2D1CA3",
". c #ACA6D0",
"X c #230EAD",
"o c #1A0B83",
"O c #6357B0",
"+ c #7D190A",
"@ c #9891C6",
"# c #210DA4",
"$ c #A6A0CD",
"% c #291A8E",
"& c #16096E",
"* c #5647BA",
"= c #4B4384",
"- c #A7A0D1",
"; c #591207",
": c #A49FC4",
"> c #CBCAD3",
", c #1C0B8E",
"< c #A7A0D4",
"1 c #22176C",
"2 c #948FB4",
"3 c #1D1167",
"4 c #A7675D",
"5 c #A29EBB",
"6 c #362893",
"7 c #4B4283",
"8 c None",
"9 c #51488C",
"0 c #220EAA",
"q c #A9A5C1",
"w c #2E1CA5",
"e c #4A3567",
"r c #62160B",
"t c #200DA1",
"y c #150A61",
"u c #683C81",
"i c #B43320",
"p c #13085F",
"a c #210DA5",
"s c #CDCBDD",
"d c #16096F",
"f c #A39FC1",
"g c #5747BC",
"h c #5647BB",
"j c #50478A",
"k c #5A385F",
"l c #4F3893",
"z c #E2D8D7",
"x c #98200E",
"c c #1A0A80",
"v c #A7A0D2",
"b c #110756",
"n c #A6A0D1",
"m c #CBCAD4",
"M c #A29EB9",
"N c #A19EB8",
"B c #4A427D",
"V c #881B0B",
"C c #50449A",
"Z c #4F4499",
"A c #100651",
"S c #A4220F",
"D c #57375E",
"F c #230EAC",
"G c #583880",
"H c #DDD7D7",
"J c #61160B",
"K c #291A8D",
"L c #6A2217",
"P c #7B190A",
"I c #2F218C",
"U c #110754",
"Y c #100753",
"T c #CDCBDE",
"R c #1F165B",
"E c #8C574F",
"W c #A19EB6",
"Q c #58385E",
"! c #E1D8D7",
"~ c #110757",
"^ c #22176B",
"/ c #A9A3CB",
"( c #A29EBA",
") c #DED8D7",
"_ c #12075B",
"` c #ADAAC8",
"' c #5E1307",
"] c #6458B2",
"[ c #5345AB",
"{ c #4B4282",
/* pixels */
"8888888:<8888888",
"888888Mo0v888888",
"88888W&,aFn88888",
"8888>=C%whgT8888",
"888>888B[888T888",
"88W{88)ku!88g-88",
"8(p{8HLVSiz8*X<8",
"2_b^[G;+xSu[ t#@",
"`yYRBer'PVQBK,cf",
"8.I9884J;E88ZdM8",
"88$]888Dl8887W88",
"8888888B[8888888",
"8888sOjR1{=m8888",
"88888$6AUpM88888",
"888888/3~5888888",
"8888888qN8888888"
};
