/* XPM */
static const char * IconExample[] = {
/* width height ncolors chars_per_pixel */
"16 16 118 2",
/* colors */
"   c #2828AF",
" . c #BCBCC9",
" X c #3D3D7E",
" o c #7E7EC1",
" O c #D9D9E2",
" + c #121257",
" @ c #7D7DB6",
" # c #AFAFC9",
" $ c #181877",
" % c #BEBED1",
" & c #AB96A4",
" * c #6A6A99",
" = c #3C3C79",
" - c #7D190A",
" ; c #5A5A9D",
" : c #18187A",
" > c #D8D8DD",
" , c #AEAEC1",
" < c #1E1E97",
" 1 c #B12612",
" 2 c #9393AD",
" 3 c #141462",
" 4 c #B1B1D1",
" 5 c #3B3B71",
" 6 c #AEAEC4",
" 7 c #BB979C",
" 8 c #3E3EC0",
" 9 c #9D5C57",
" 0 c #5A1208",
" q c #591207",
" w c #CEC9CC",
" e c #C3C3D5",
" r c #4B4BB2",
" t c #414191",
" y c #5151A4",
" u c #951E0D",
" i c #6868A0",
" p c #891B0B",
" a c #2424A6",
" s c #D7D7DB",
" d c #7777AB",
" f c #9292AB",
" g c #AD605C",
" h c #3A3A6F",
" j c #651408",
" k c #BAAEB1",
" l c #161670",
" z c None",
" x c #67679B",
" c c #8E8EAA",
" v c #A42411",
" b c #1F1F9D",
" n c #40408F",
" m c #AC96A3",
" M c #8A1C0B",
" N c #5555B4",
" B c #181878",
" V c #691508",
" C c #3F3F87",
" Z c #B1B1CF",
" A c #7C7CC6",
" S c #D8D8DE",
" D c #661508",
" F c #3F3F8A",
" G c #7878AE",
" H c #A42310",
" J c #D8D8E1",
" K c #C0C0DA",
" L c #111156",
" P c #3030B0",
" I c #171773",
" U c #BDBDCD",
" Y c #4D4DB5",
" T c #414192",
" R c #A44741",
" E c #40409E",
" W c #80271A",
" Q c #D7D7DC",
" ! c #16166E",
" ~ c #7070C3",
" ^ c #5C1307",
" / c #676799",
" ( c #3A3A70",
" ) c #282886",
" _ c #161671",
" ` c #4646AA",
" ' c #D2CAD0",
" ] c #121259",
" [ c #BEBED0",
" { c #7E190A",
" } c #6C6CB1",
" | c #BEBED3",
".  c #A6868A",
".. c #3F3F88",
".X c #965B56",
".o c #D8D8DF",
".O c #A897B0",
".+ c #171771",
".@ c #BDBDCB",
".# c #5A1207",
".$ c #9393AF",
".% c #B1B1D3",
".& c #9999CC",
".* c #8282BC",
".= c #D8D8E2",
".- c #171760",
".; c #8A585A",
".: c #CCB1B5",
".> c #4D4DB6",
"., c #93423B",
".< c #555582",
".1 c #9595CE",
".2 c #9898C7",
".3 c #2A2A86",
".4 c #1F1F99",
".5 c #9595BA",
".6 c #40408B",
".7 c #AA8686",
/* pixels */
" z z z z z z z S O z z z z z z z",
" z z z z z z z x ~ z z z z z z z",
" z z G.% z z s l  .= z z 4 o z z",
" z z 6 : b N c n Y.1 y.4 P Z z z",
" z z z 3 B.* z , 4 z @ 8 < z z z",
" z z z i f E &., R 7 ).2 } z z z",
" z z [ d z k V M v 1.: z A K z z",
" # F.+.. 4.; ^ { u H g 4 r a.> 4",
" Q *.- 5 ,.X 0 D - p 9 , t _ / >",
" z z.o e z m W q.# j.O z . s z z",
" z z z.$.6 ) '.7.  w.3 T.& z z z",
" z z z ( ] ; z , 4 z.< $ ` z z z",
" z z s L h 2 d 5 C d.5 X I J z z",
" z z Q s z z | + ! % z z S S z z",
" z z z z z z z = C z z z z z z z",
" z z z z z z z.@ U z z z z z z z"
};
